# xmcd
#
# Track frame offsets:
#	150
#	13423
#	26812
#	37249
#	50321
#	64765
#	76632
#	90017
#	104699
#	120021
#	135303
#	148340
#	164470
#	179397
#	193569
#	206536
#	217197
#	228384
#	241129
#	253429
#
# Disc length: 3552 seconds
#
# Revision: 1
# Processed by: cddbd v1.5.2PL0 Copyright (c) Steve Scherf et al.
# Submitted via: audiograbber 1.83.01
#
DISCID=1a0dde14
DTITLE=Judy Garland - The Best Of Young Judy - Disk 2
DYEAR=1900
DGENRE=
TTITLE0=I Got Rhythm
TTITLE1=The Trolley Song
TTITLE2=Meet Me In St.Louis
TTITLE3=Have Yourself A Merry Little Christmas
TTITLE4=The Boy Next Door
TTITLE5=On The Sunny Side Of The Street
TTITLE6=You've Got Me Where You Want Me
TTITLE7=Ya-Ta-Ta, Ya-Ta-Ta
TTITLE8=You'll Never Walk Alone
TTITLE9=Look For The Silver Lining
TTITLE10=Who?
TTITLE11=Liza (All The Clouds'll Roll Away)
TTITLE12=On The Atchison, Topeka And Santa Fe
TTITLE13=Aren't You Kinda Glad We Did?
TTITLE14=I Wish I Were In Love Again
TTITLE15=Johnny One Note
TTITLE16=Play That Barbershop Chord
TTITLE17=Put Your Arms Around Me Honey
TTITLE18=A Couple Of Swells
TTITLE19=Get Happy
EXTD=
EXTT0=
EXTT1=
EXTT2=
EXTT3=
EXTT4=
EXTT5=
EXTT6=
EXTT7=
EXTT8=
EXTT9=
EXTT10=
EXTT11=
EXTT12=
EXTT13=
EXTT14=
EXTT15=
EXTT16=
EXTT17=
EXTT18=
EXTT19=
PLAYORDER=
